<?xml version="1.0"?>
<svg xmlns="http://www.w3.org/2000/svg" height="512px" viewBox="-72 0 512 512" width="512px"><path d="m259.617188 512h-249.617188c-5.523438 0-10-4.476562-10-10v-459.777344c0-23.28125 18.941406-42.222656 42.21875-42.222656h284.4375c23.28125 0 42.222656 18.941406 42.222656 42.222656v360.515625c0 60.246094-49.015625 109.261719-109.261718 109.261719zm-239.617188-20h239.617188c49.21875 0 89.261718-40.042969 89.261718-89.261719v-360.515625c0-12.253906-9.96875-22.222656-22.222656-22.222656h-284.4375c-12.25 0-22.21875 9.96875-22.21875 22.222656zm0 0" fill="#7da7fa"/><path d="m255.050781 296.136719h-195.050781c-5.523438 0-10-4.480469-10-10v-226.136719c0-5.519531 4.476562-10 10-10h248.878906c5.519532 0 10 4.480469 10 10 0 5.523438-4.480468 10-10 10h-238.878906v206.136719h185.050781c24.164063 0 43.828125-19.664063 43.828125-43.828125v-69.664063c0-5.523437 4.476563-10 10-10 5.519532 0 10 4.476563 10 10v69.664063c0 35.195312-28.632812 63.828125-63.828125 63.828125zm0 0" fill="#7da7fa"/><path d="m308.878906 118.160156c-.648437 0-1.308594-.0625-1.960937-.191406-.628907-.128906-1.257813-.320312-1.867188-.570312-.601562-.25-1.183593-.558594-1.722656-.917969-.550781-.371094-1.058594-.789063-1.519531-1.25-1.859375-1.859375-2.929688-4.441407-2.929688-7.070313 0-.648437.070313-1.308594.199219-1.949218.121094-.640626.3125-1.269532.5625-1.871094.25-.609375.558594-1.1875.917969-1.730469.371094-.546875.789062-1.058594 1.25-1.519531.460937-.457032.96875-.878906 1.519531-1.238282.539063-.359374 1.121094-.671874 1.722656-.921874.609375-.25 1.238281-.4375 1.867188-.570313 1.292969-.257813 2.621093-.257813 3.910156 0 .640625.132813 1.273437.320313 1.871094.570313.609375.25 1.191406.5625 1.730469.921874.550781.359376 1.058593.78125 1.519531 1.238282.460937.460937.878906.972656 1.238281 1.519531.359375.542969.671875 1.121094.921875 1.730469.25.601562.441406 1.230468.570313 1.871094.128906.640624.199218 1.300781.199218 1.949218 0 2.640625-1.070312 5.210938-2.929687 7.070313-.460938.460937-.972657.878906-1.519531 1.25-.542969.359375-1.121094.667969-1.730469.917969-.601563.25-1.230469.441406-1.871094.570312-.640625.132812-1.300781.191406-1.949219.191406zm0 0" fill="#7da7fa"/><path d="m127.945312 453.328125h-40.308593c-5.523438 0-10-4.476563-10-10v-19.1875h-19.1875c-5.523438 0-10-4.476563-10-10v-40.3125c0-5.519531 4.476562-10 10-10h19.1875v-19.1875c0-5.523437 4.476562-10 10-10h40.3125c5.523437 0 10 4.476563 10 10v19.1875h19.1875c5.523437 0 10 4.480469 10 10v40.3125c0 5.523437-4.476563 10-10 10h-19.1875v19.1875c-.003907 5.523437-4.480469 10-10.003907 10zm-30.308593-20h20.308593v-19.1875c0-5.523437 4.480469-10 10-10h19.191407v-20.3125h-19.191407c-5.519531 0-10-4.476563-10-10v-19.1875h-20.308593v19.1875c0 5.523437-4.480469 10-10 10h-19.1875v20.3125h19.1875c5.523437 0 10 4.476563 10 10zm0 0" fill="#7da7fa"/><path d="m102.109375 144.90625c-2.558594 0-5.117187-.976562-7.070313-2.929688-3.90625-3.902343-3.90625-10.234374 0-14.140624l26.46875-26.472657c3.90625-3.902343 10.238282-3.902343 14.144532 0 3.90625 3.90625 3.90625 10.238281 0 14.144531l-26.472656 26.46875c-1.953126 1.953126-4.511719 2.929688-7.070313 2.929688zm0 0" fill="#7da7fa"/><path d="m108.140625 182.082031c-2.5625 0-5.117187-.976562-7.070313-2.929687-3.90625-3.90625-3.90625-10.238282 0-14.144532l57.613282-57.613281c3.90625-3.902343 10.234375-3.902343 14.140625 0 3.90625 3.90625 3.90625 10.238281 0 14.144531l-57.613281 57.613282c-1.953126 1.953125-4.511719 2.929687-7.070313 2.929687zm0 0" fill="#7da7fa"/><path d="m281.488281 404.496094c-9.574219 0-19.152343-3.644532-26.441406-10.929688-14.578125-14.582031-14.578125-38.300781 0-52.878906 14.578125-14.582031 38.300781-14.578125 52.878906 0 7.0625 7.058594 10.953125 16.449219 10.953125 26.4375s-3.890625 19.378906-10.953125 26.441406c-7.289062 7.285156-16.863281 10.929688-26.4375 10.929688zm0-54.753906c-4.457031 0-8.90625 1.695312-12.300781 5.085937-6.777344 6.78125-6.777344 17.8125.003906 24.59375 6.777344 6.777344 17.8125 6.78125 24.59375 0 3.285156-3.285156 5.09375-7.652344 5.09375-12.296875s-1.808594-9.011719-5.09375-12.296875c-3.390625-3.390625-7.84375-5.085937-12.296875-5.085937zm0 0" fill="#7da7fa"/><path d="m222.160156 463.84375c-9.988281 0-19.378906-3.890625-26.4375-10.953125-7.066406-7.058594-10.953125-16.449219-10.953125-26.4375s3.890625-19.378906 10.953125-26.441406c14.578125-14.574219 38.296875-14.578125 52.875 0 14.582032 14.582031 14.582032 38.300781.003906 52.878906-7.066406 7.0625-16.453124 10.953125-26.441406 10.953125zm0-54.773438c-4.453125 0-8.90625 1.695313-12.296875 5.085938-3.285156 3.285156-5.09375 7.652344-5.09375 12.296875s1.808594 9.011719 5.09375 12.296875c3.285157 3.285156 7.652344 5.09375 12.296875 5.09375 4.644532 0 9.011719-1.808594 12.296875-5.09375 6.78125-6.78125 6.78125-17.816406 0-24.597656-3.390625-3.386719-7.84375-5.082032-12.296875-5.082032zm0 0" fill="#7da7fa"/></svg>
